{
	"asset":{
		"generator":"Khronos glTF Blender I/O v4.5.49",
		"version":"2.0"
	},
	"scene":0,
	"scenes":[
		{
			"name":"Scene",
			"nodes":[
				0
			]
		}
	],
	"nodes":[
		{
			"mesh":0,
			"name":"Circle.002",
			"translation":[
				0,
				0.6523445248603821,
				0
			]
		}
	],
	"materials":[
		{
			"doubleSided":true,
			"name":"Brush.001",
			"pbrMetallicRoughness":{
				"baseColorTexture":{
					"index":0
				},
				"metallicFactor":0,
				"roughnessFactor":0.5
			}
		},
		{
			"doubleSided":true,
			"name":"Brush.002",
			"pbrMetallicRoughness":{
				"baseColorTexture":{
					"index":1
				},
				"metallicFactor":0,
				"roughnessFactor":0.5
			}
		}
	],
	"meshes":[
		{
			"name":"Circle.002",
			"primitives":[
				{
					"attributes":{
						"POSITION":0,
						"NORMAL":1,
						"TEXCOORD_0":2
					},
					"indices":3,
					"material":0
				},
				{
					"attributes":{
						"POSITION":4,
						"NORMAL":5,
						"TEXCOORD_0":6
					},
					"indices":7,
					"material":1
				}
			]
		}
	],
	"textures":[
		{
			"sampler":0,
			"source":0
		},
		{
			"sampler":0,
			"source":1
		}
	],
	"images":[
		{
			"mimeType":"image/png",
			"name":"stk_mod_nitroBarrel",
			"uri":"stk_mod_nitroBarrel.png"
		},
		{
			"mimeType":"image/png",
			"name":"stk_mod_nitroLogo",
			"uri":"stk_mod_nitroLogo.png"
		}
	],
	"accessors":[
		{
			"bufferView":0,
			"componentType":5126,
			"count":264,
			"max":[
				0.403609037399292,
				0.5789026618003845,
				0.41158953309059143
			],
			"min":[
				-0.403609037399292,
				-0.6018435955047607,
				-0.39562857151031494
			],
			"type":"VEC3"
		},
		{
			"bufferView":1,
			"componentType":5126,
			"count":264,
			"type":"VEC3"
		},
		{
			"bufferView":2,
			"componentType":5126,
			"count":264,
			"type":"VEC2"
		},
		{
			"bufferView":3,
			"componentType":5123,
			"count":1302,
			"type":"SCALAR"
		},
		{
			"bufferView":4,
			"componentType":5126,
			"count":30,
			"max":[
				0.4014092683792114,
				0.31484079360961914,
				0.28760552406311035
			],
			"min":[
				-0.40140944719314575,
				-0.3380190432071686,
				-0.271644651889801
			],
			"type":"VEC3"
		},
		{
			"bufferView":5,
			"componentType":5126,
			"count":30,
			"type":"VEC3"
		},
		{
			"bufferView":6,
			"componentType":5126,
			"count":30,
			"type":"VEC2"
		},
		{
			"bufferView":7,
			"componentType":5123,
			"count":96,
			"type":"SCALAR"
		}
	],
	"bufferViews":[
		{
			"buffer":0,
			"byteLength":3168,
			"byteOffset":0,
			"target":34962
		},
		{
			"buffer":0,
			"byteLength":3168,
			"byteOffset":3168,
			"target":34962
		},
		{
			"buffer":0,
			"byteLength":2112,
			"byteOffset":6336,
			"target":34962
		},
		{
			"buffer":0,
			"byteLength":2604,
			"byteOffset":8448,
			"target":34963
		},
		{
			"buffer":0,
			"byteLength":360,
			"byteOffset":11052,
			"target":34962
		},
		{
			"buffer":0,
			"byteLength":360,
			"byteOffset":11412,
			"target":34962
		},
		{
			"buffer":0,
			"byteLength":240,
			"byteOffset":11772,
			"target":34962
		},
		{
			"buffer":0,
			"byteLength":192,
			"byteOffset":12012,
			"target":34963
		}
	],
	"samplers":[
		{
			"magFilter":9729,
			"minFilter":9987
		}
	],
	"buffers":[
		{
			"byteLength":12204,
			"uri":"nitro.bin"
		}
	]
}
