{
	"asset":{
		"generator":"Khronos glTF Blender I/O v4.5.47",
		"version":"2.0"
	},
	"scene":0,
	"scenes":[
		{
			"name":"Scene",
			"nodes":[
				0
			]
		}
	],
	"nodes":[
		{
			"mesh":0,
			"name":"Cube"
		}
	],
	"meshes":[
		{
			"name":"Cube",
			"primitives":[
				{
					"attributes":{
						"POSITION":0,
						"NORMAL":1,
						"TEXCOORD_0":2
					},
					"indices":3
				}
			]
		}
	],
	"accessors":[
		{
			"bufferView":0,
			"componentType":5126,
			"count":2232,
			"max":[
				7.5,
				7.5,
				7.5
			],
			"min":[
				-7.5,
				-7.5,
				-7.5
			],
			"type":"VEC3"
		},
		{
			"bufferView":1,
			"componentType":5126,
			"count":2232,
			"type":"VEC3"
		},
		{
			"bufferView":2,
			"componentType":5126,
			"count":2232,
			"type":"VEC2"
		},
		{
			"bufferView":3,
			"componentType":5123,
			"count":4452,
			"type":"SCALAR"
		}
	],
	"bufferViews":[
		{
			"buffer":0,
			"byteLength":26784,
			"byteOffset":0,
			"target":34962
		},
		{
			"buffer":0,
			"byteLength":26784,
			"byteOffset":26784,
			"target":34962
		},
		{
			"buffer":0,
			"byteLength":17856,
			"byteOffset":53568,
			"target":34962
		},
		{
			"buffer":0,
			"byteLength":8904,
			"byteOffset":71424,
			"target":34963
		}
	],
	"buffers":[
		{
			"byteLength":80328,
			"uri":"Scp938Cage.bin"
		}
	]
}
