{
	"asset":{
		"generator":"Khronos glTF Blender I/O v4.4.55",
		"version":"2.0"
	},
	"scene":0,
	"scenes":[
		{
			"name":"Scene",
			"nodes":[
				0
			]
		}
	],
	"nodes":[
		{
			"mesh":0,
			"name":"M249_lowpoly_M249 Gun_0",
			"rotation":[
				-0.70710688829422,
				0,
				0,
				0.7071066498756409
			]
		}
	],
	"materials":[
		{
			"doubleSided":true,
			"name":"M249_Gun",
			"normalTexture":{
				"index":0
			},
			"occlusionTexture":{
				"index":1
			},
			"pbrMetallicRoughness":{
				"baseColorTexture":{
					"index":2
				},
				"metallicRoughnessTexture":{
					"index":1
				}
			}
		}
	],
	"meshes":[
		{
			"name":"M249_lowpoly_M249 Gun_0",
			"primitives":[
				{
					"attributes":{
						"POSITION":0,
						"NORMAL":1,
						"TEXCOORD_0":2
					},
					"indices":3,
					"material":0
				}
			]
		}
	],
	"textures":[
		{
			"sampler":0,
			"source":0
		},
		{
			"sampler":0,
			"source":1
		},
		{
			"sampler":0,
			"source":2
		}
	],
	"images":[
		{
			"mimeType":"image/jpeg",
			"name":"M249_Gun_normal",
			"uri":"M249_Gun_normal.jpg"
		},
		{
			"mimeType":"image/png",
			"name":"M249_Gun_metallicRoughness",
			"uri":"M249_Gun_metallicRoughness.png"
		},
		{
			"mimeType":"image/jpeg",
			"name":"M249_Gun_baseColor",
			"uri":"M249_Gun_baseColor.jpg"
		}
	],
	"accessors":[
		{
			"bufferView":0,
			"componentType":5126,
			"count":12710,
			"max":[
				0.5410335659980774,
				6.663239002227783,
				1.6728944778442383
			],
			"min":[
				-0.5442997813224792,
				-3.0286831855773926,
				-1.532508134841919
			],
			"type":"VEC3"
		},
		{
			"bufferView":1,
			"componentType":5126,
			"count":12710,
			"type":"VEC3"
		},
		{
			"bufferView":2,
			"componentType":5126,
			"count":12710,
			"type":"VEC2"
		},
		{
			"bufferView":3,
			"componentType":5123,
			"count":35379,
			"type":"SCALAR"
		}
	],
	"bufferViews":[
		{
			"buffer":0,
			"byteLength":152520,
			"byteOffset":0,
			"target":34962
		},
		{
			"buffer":0,
			"byteLength":152520,
			"byteOffset":152520,
			"target":34962
		},
		{
			"buffer":0,
			"byteLength":101680,
			"byteOffset":305040,
			"target":34962
		},
		{
			"buffer":0,
			"byteLength":70758,
			"byteOffset":406720,
			"target":34963
		}
	],
	"samplers":[
		{
			"magFilter":9729,
			"minFilter":9987
		}
	],
	"buffers":[
		{
			"byteLength":477480,
			"uri":"Logicer.bin"
		}
	]
}
