{
	"asset":{
		"generator":"Khronos glTF Blender I/O v4.5.47",
		"version":"2.0"
	},
	"scene":0,
	"scenes":[
		{
			"name":"Scene",
			"nodes":[
				0
			]
		}
	],
	"nodes":[
		{
			"mesh":0,
			"name":"Cube.003",
			"rotation":[
				0,
				0.7071067094802856,
				0,
				0.7071068286895752
			],
			"translation":[
				0.07000000029802322,
				0.1753603219985962,
				-0.36000001430511475
			]
		}
	],
	"materials":[
		{
			"doubleSided":true,
			"name":"Walls",
			"pbrMetallicRoughness":{
				"baseColorFactor":[
					0.800000011920929,
					0.800000011920929,
					0.800000011920929,
					1
				],
				"metallicFactor":0,
				"roughnessFactor":0.5
			}
		},
		{
			"doubleSided":true,
			"name":"Floor",
			"pbrMetallicRoughness":{
				"baseColorFactor":[
					0.800000011920929,
					0.800000011920929,
					0.800000011920929,
					1
				],
				"metallicFactor":0,
				"roughnessFactor":0.5
			}
		},
		{
			"doubleSided":true,
			"name":"Ceiling",
			"pbrMetallicRoughness":{
				"baseColorFactor":[
					0.800000011920929,
					0.800000011920929,
					0.800000011920929,
					1
				],
				"metallicFactor":0,
				"roughnessFactor":0.5
			}
		},
		{
			"doubleSided":true,
			"name":"Concrete",
			"pbrMetallicRoughness":{
				"baseColorFactor":[
					0.800000011920929,
					0.800000011920929,
					0.800000011920929,
					1
				],
				"metallicFactor":0,
				"roughnessFactor":0.5
			}
		}
	],
	"meshes":[
		{
			"name":"Cube.004",
			"primitives":[
				{
					"attributes":{
						"POSITION":0,
						"NORMAL":1,
						"TEXCOORD_0":2
					},
					"indices":3,
					"material":0
				},
				{
					"attributes":{
						"POSITION":4,
						"NORMAL":5,
						"TEXCOORD_0":6
					},
					"indices":7,
					"material":1
				},
				{
					"attributes":{
						"POSITION":8,
						"NORMAL":9,
						"TEXCOORD_0":10
					},
					"indices":11,
					"material":2
				},
				{
					"attributes":{
						"POSITION":12,
						"NORMAL":13,
						"TEXCOORD_0":14
					},
					"indices":15,
					"material":3
				}
			]
		}
	],
	"accessors":[
		{
			"bufferView":0,
			"componentType":5126,
			"count":118,
			"max":[
				105.59027862548828,
				16.976741790771484,
				15.570430755615234
			],
			"min":[
				-5.642681121826172,
				-0.17442333698272705,
				-14.592594146728516
			],
			"type":"VEC3"
		},
		{
			"bufferView":1,
			"componentType":5126,
			"count":118,
			"type":"VEC3"
		},
		{
			"bufferView":2,
			"componentType":5126,
			"count":118,
			"type":"VEC2"
		},
		{
			"bufferView":3,
			"componentType":5123,
			"count":195,
			"type":"SCALAR"
		},
		{
			"bufferView":4,
			"componentType":5126,
			"count":55,
			"max":[
				105.59027862548828,
				-0.16036677360534668,
				27.418529510498047
			],
			"min":[
				-5.642681121826172,
				-0.17442333698272705,
				-26.056745529174805
			],
			"type":"VEC3"
		},
		{
			"bufferView":5,
			"componentType":5126,
			"count":55,
			"type":"VEC3"
		},
		{
			"bufferView":6,
			"componentType":5126,
			"count":55,
			"type":"VEC2"
		},
		{
			"bufferView":7,
			"componentType":5123,
			"count":177,
			"type":"SCALAR"
		},
		{
			"bufferView":8,
			"componentType":5126,
			"count":162,
			"max":[
				105.59027862548828,
				16.976741790771484,
				27.418529510498047
			],
			"min":[
				-5.642681121826172,
				5.174762725830078,
				-26.056745529174805
			],
			"type":"VEC3"
		},
		{
			"bufferView":9,
			"componentType":5126,
			"count":162,
			"type":"VEC3"
		},
		{
			"bufferView":10,
			"componentType":5126,
			"count":162,
			"type":"VEC2"
		},
		{
			"bufferView":11,
			"componentType":5123,
			"count":468,
			"type":"SCALAR"
		},
		{
			"bufferView":12,
			"componentType":5126,
			"count":117,
			"max":[
				105.59027862548828,
				16.976741790771484,
				27.418529510498047
			],
			"min":[
				64.22209167480469,
				-0.17442333698272705,
				-26.056745529174805
			],
			"type":"VEC3"
		},
		{
			"bufferView":13,
			"componentType":5126,
			"count":117,
			"type":"VEC3"
		},
		{
			"bufferView":14,
			"componentType":5126,
			"count":117,
			"type":"VEC2"
		},
		{
			"bufferView":15,
			"componentType":5123,
			"count":264,
			"type":"SCALAR"
		}
	],
	"bufferViews":[
		{
			"buffer":0,
			"byteLength":1416,
			"byteOffset":0,
			"target":34962
		},
		{
			"buffer":0,
			"byteLength":1416,
			"byteOffset":1416,
			"target":34962
		},
		{
			"buffer":0,
			"byteLength":944,
			"byteOffset":2832,
			"target":34962
		},
		{
			"buffer":0,
			"byteLength":390,
			"byteOffset":3776,
			"target":34963
		},
		{
			"buffer":0,
			"byteLength":660,
			"byteOffset":4168,
			"target":34962
		},
		{
			"buffer":0,
			"byteLength":660,
			"byteOffset":4828,
			"target":34962
		},
		{
			"buffer":0,
			"byteLength":440,
			"byteOffset":5488,
			"target":34962
		},
		{
			"buffer":0,
			"byteLength":354,
			"byteOffset":5928,
			"target":34963
		},
		{
			"buffer":0,
			"byteLength":1944,
			"byteOffset":6284,
			"target":34962
		},
		{
			"buffer":0,
			"byteLength":1944,
			"byteOffset":8228,
			"target":34962
		},
		{
			"buffer":0,
			"byteLength":1296,
			"byteOffset":10172,
			"target":34962
		},
		{
			"buffer":0,
			"byteLength":936,
			"byteOffset":11468,
			"target":34963
		},
		{
			"buffer":0,
			"byteLength":1404,
			"byteOffset":12404,
			"target":34962
		},
		{
			"buffer":0,
			"byteLength":1404,
			"byteOffset":13808,
			"target":34962
		},
		{
			"buffer":0,
			"byteLength":936,
			"byteOffset":15212,
			"target":34962
		},
		{
			"buffer":0,
			"byteLength":528,
			"byteOffset":16148,
			"target":34963
		}
	],
	"buffers":[
		{
			"byteLength":16676,
			"uri":"subl_cont938.bin"
		}
	]
}
