{
	"asset":{
		"generator":"Khronos glTF Blender I/O v4.5.47",
		"version":"2.0"
	},
	"scene":0,
	"scenes":[
		{
			"name":"Scene",
			"nodes":[
				0,
				1
			]
		}
	],
	"nodes":[
		{
			"mesh":0,
			"name":"B\u00e9zierCurve",
			"rotation":[
				0.02354263886809349,
				0.024183016270399094,
				-0.7161211967468262,
				0.6971595287322998
			],
			"translation":[
				-0.2534048557281494,
				0.592465877532959,
				-0.22675156593322754
			]
		},
		{
			"mesh":1,
			"name":"Cube",
			"translation":[
				0,
				0.9390215277671814,
				0
			]
		}
	],
	"materials":[
		{
			"doubleSided":true,
			"name":"Statue173",
			"normalTexture":{
				"index":0
			},
			"pbrMetallicRoughness":{
				"baseColorTexture":{
					"index":1
				},
				"metallicFactor":0,
				"metallicRoughnessTexture":{
					"index":2
				}
			}
		}
	],
	"meshes":[
		{
			"name":"B\u00e9zierCurve.001",
			"primitives":[
				{
					"attributes":{
						"POSITION":0,
						"NORMAL":1,
						"TEXCOORD_0":2
					},
					"indices":3,
					"material":0
				}
			]
		},
		{
			"name":"Cube",
			"primitives":[
				{
					"attributes":{
						"POSITION":4,
						"NORMAL":5,
						"TEXCOORD_0":6
					},
					"indices":7,
					"material":0
				}
			]
		}
	],
	"textures":[
		{
			"sampler":0,
			"source":0
		},
		{
			"sampler":0,
			"source":1
		},
		{
			"sampler":0,
			"source":2
		}
	],
	"images":[
		{
			"mimeType":"image/png",
			"name":"Scp173Statue_nor",
			"uri":"Scp173Statue_nor.png"
		},
		{
			"mimeType":"image/png",
			"name":"Scp173Statue_base",
			"uri":"Scp173Statue_base.png"
		},
		{
			"mimeType":"image/png",
			"name":"Scp173Statue_rough",
			"uri":"Scp173Statue_rough.png"
		}
	],
	"accessors":[
		{
			"bufferView":0,
			"componentType":5126,
			"count":429,
			"max":[
				0.4120471477508545,
				0.15960019826889038,
				0.14060114324092865
			],
			"min":[
				-1.4895026683807373,
				-0.23251600563526154,
				-0.09653773903846741
			],
			"type":"VEC3"
		},
		{
			"bufferView":1,
			"componentType":5126,
			"count":429,
			"type":"VEC3"
		},
		{
			"bufferView":2,
			"componentType":5126,
			"count":429,
			"type":"VEC2"
		},
		{
			"bufferView":3,
			"componentType":5123,
			"count":1728,
			"type":"SCALAR"
		},
		{
			"bufferView":4,
			"componentType":5126,
			"count":6465,
			"max":[
				0.4455501437187195,
				1.766026496887207,
				0.30975818634033203
			],
			"min":[
				-0.460041880607605,
				-0.9005416035652161,
				-0.3199501931667328
			],
			"type":"VEC3"
		},
		{
			"bufferView":5,
			"componentType":5126,
			"count":6465,
			"type":"VEC3"
		},
		{
			"bufferView":6,
			"componentType":5126,
			"count":6465,
			"type":"VEC2"
		},
		{
			"bufferView":7,
			"componentType":5123,
			"count":31929,
			"type":"SCALAR"
		}
	],
	"bufferViews":[
		{
			"buffer":0,
			"byteLength":5148,
			"byteOffset":0,
			"target":34962
		},
		{
			"buffer":0,
			"byteLength":5148,
			"byteOffset":5148,
			"target":34962
		},
		{
			"buffer":0,
			"byteLength":3432,
			"byteOffset":10296,
			"target":34962
		},
		{
			"buffer":0,
			"byteLength":3456,
			"byteOffset":13728,
			"target":34963
		},
		{
			"buffer":0,
			"byteLength":77580,
			"byteOffset":17184,
			"target":34962
		},
		{
			"buffer":0,
			"byteLength":77580,
			"byteOffset":94764,
			"target":34962
		},
		{
			"buffer":0,
			"byteLength":51720,
			"byteOffset":172344,
			"target":34962
		},
		{
			"buffer":0,
			"byteLength":63858,
			"byteOffset":224064,
			"target":34963
		}
	],
	"samplers":[
		{
			"magFilter":9729,
			"minFilter":9987
		}
	],
	"buffers":[
		{
			"byteLength":287924,
			"uri":"Scp173.bin"
		}
	]
}
