{
	"asset":{
		"generator":"Khronos glTF Blender I/O v4.5.49",
		"version":"2.0"
	},
	"scene":0,
	"scenes":[
		{
			"name":"Scene",
			"nodes":[
				0,
				1,
				2,
				3,
				4,
				5,
				6,
				7,
				8,
				9,
				10,
				11,
				12,
				13,
				14,
				15,
				16,
				17,
				18,
				19,
				20,
				21,
				22,
				23,
				24,
				25,
				26,
				27,
				28,
				29,
				30,
				31,
				32,
				33,
				34,
				35,
				36,
				37,
				38,
				39,
				40,
				41,
				42,
				43,
				44,
				45,
				46,
				47,
				48,
				49,
				50
			]
		}
	],
	"nodes":[
		{
			"mesh":0,
			"name":"B\u00e9zierCurve",
			"rotation":[
				0,
				0.7071067094802856,
				0,
				0.7071068286895752
			]
		},
		{
			"mesh":1,
			"name":"Cylinder.001",
			"rotation":[
				-0.6657207608222961,
				-0.7061242461204529,
				-0.03726298734545708,
				0.23836079239845276
			],
			"scale":[
				0.4999992251396179,
				0.4999992251396179,
				0.49999916553497314
			],
			"translation":[
				0.011600276455283165,
				5.346205711364746,
				7.997661113739014
			]
		},
		{
			"mesh":1,
			"name":"Cylinder.002",
			"rotation":[
				-0.6969742178916931,
				-0.6918497681617737,
				-0.1460956186056137,
				0.11927676945924759
			],
			"scale":[
				0.5000007152557373,
				0.5000008344650269,
				0.5000007748603821
			],
			"translation":[
				-0.0027190332766622305,
				5.355545997619629,
				8.028877258300781
			]
		},
		{
			"mesh":1,
			"name":"Cylinder.003",
			"rotation":[
				0.10814177244901657,
				0.578999936580658,
				-0.4059053063392639,
				0.6987884640693665
			],
			"scale":[
				0.5000007748603821,
				0.5000008940696716,
				0.5000007748603821
			],
			"translation":[
				-0.02824397198855877,
				4.835479259490967,
				6.944523334503174
			]
		},
		{
			"mesh":1,
			"name":"Cylinder.004",
			"rotation":[
				0.5840566754341125,
				0.09310870617628098,
				-0.7009499073028564,
				0.3985948860645294
			],
			"scale":[
				0.4999993145465851,
				0.499999463558197,
				0.49999934434890747
			],
			"translation":[
				0.02584921196103096,
				4.882091999053955,
				7.040925025939941
			]
		},
		{
			"mesh":1,
			"name":"Cylinder.005",
			"rotation":[
				-0.26712241768836975,
				-0.7067658305168152,
				0.02195465937256813,
				0.6547104120254517
			],
			"scale":[
				0.4999997317790985,
				0.4999997913837433,
				0.4999997615814209
			],
			"translation":[
				0.03843981400132179,
				4.59974479675293,
				6.564058303833008
			]
		},
		{
			"mesh":1,
			"name":"Cylinder.006",
			"rotation":[
				-0.38877835869789124,
				-0.6946302056312561,
				-0.13224531710147858,
				0.5906364321708679
			],
			"scale":[
				0.5000001788139343,
				0.5000002384185791,
				0.5000001788139343
			],
			"translation":[
				0.025027263909578323,
				4.486132621765137,
				6.337750434875488
			]
		},
		{
			"mesh":1,
			"name":"Cylinder.007",
			"rotation":[
				-0.6973662972450256,
				-0.38164380192756653,
				-0.5952714681625366,
				0.1169622391462326
			],
			"scale":[
				0.5000001788139343,
				0.5000001788139343,
				0.5000001788139343
			],
			"translation":[
				-0.029132673516869545,
				4.531457424163818,
				6.442714691162109
			]
		},
		{
			"mesh":1,
			"name":"Cylinder.008",
			"rotation":[
				0.38015100359916687,
				0.41091492772102356,
				-0.5754554271697998,
				0.5962257981300354
			],
			"scale":[
				0.49999943375587463,
				0.4999995231628418,
				0.499999463558197
			],
			"translation":[
				-0.0036808066070079803,
				4.530892848968506,
				6.208441734313965
			]
		},
		{
			"mesh":1,
			"name":"Cylinder.009",
			"rotation":[
				0.15970195829868317,
				0.608277440071106,
				-0.3605533838272095,
				0.6888360381126404
			],
			"scale":[
				0.5000004172325134,
				0.5000004768371582,
				0.5000003576278687
			],
			"translation":[
				-0.027648797258734703,
				4.305567264556885,
				5.6576008796691895
			]
		},
		{
			"mesh":1,
			"name":"Cylinder.010",
			"rotation":[
				-0.4817166328430176,
				-0.6265143752098083,
				-0.3278410732746124,
				0.5176379680633545
			],
			"scale":[
				0.5000004768371582,
				0.500000536441803,
				0.5000004768371582
			],
			"translation":[
				0.011447885073721409,
				4.1622700691223145,
				5.4623613357543945
			]
		},
		{
			"mesh":1,
			"name":"Cylinder.011",
			"rotation":[
				0.49478214979171753,
				0.5206935405731201,
				-0.4784122109413147,
				0.5051639080047607
			],
			"scale":[
				0.5000006556510925,
				0.5000007152557373,
				0.5000007152557373
			],
			"translation":[
				-0.00297026545740664,
				4.138467788696289,
				4.448902606964111
			]
		},
		{
			"mesh":1,
			"name":"Cylinder.012",
			"rotation":[
				0.6252315044403076,
				0.459990531206131,
				-0.5370370149612427,
				0.3302810788154602
			],
			"scale":[
				0.4999999701976776,
				0.5,
				0.5
			],
			"translation":[
				0.01271410845220089,
				4.226417541503906,
				3.63149094581604
			]
		},
		{
			"mesh":1,
			"name":"Cylinder.013",
			"rotation":[
				-0.5775495171546936,
				-0.08664102107286453,
				-0.7017787098884583,
				0.40796640515327454
			],
			"scale":[
				0.49999961256980896,
				0.49999964237213135,
				0.49999967217445374
			],
			"translation":[
				-0.02830934338271618,
				4.512585639953613,
				2.654008388519287
			]
		},
		{
			"mesh":1,
			"name":"Cylinder.014",
			"rotation":[
				0.6164848208427429,
				0.6338346004486084,
				-0.31345441937446594,
				0.34633299708366394
			],
			"scale":[
				0.5000002980232239,
				0.5000003576278687,
				0.5000003576278687
			],
			"translation":[
				-0.0029701690655201674,
				4.925024032592773,
				2.158834934234619
			]
		},
		{
			"mesh":1,
			"name":"Cylinder.015",
			"rotation":[
				0.6759384870529175,
				0.553294837474823,
				-0.4403010606765747,
				0.20762240886688232
			],
			"scale":[
				0.5000002384185791,
				0.5000002384185791,
				0.5000001788139343
			],
			"translation":[
				0.012714187614619732,
				5.140575408935547,
				1.8295173645019531
			]
		},
		{
			"mesh":1,
			"name":"Cylinder.016",
			"rotation":[
				0.7024104595184326,
				0.41248413920402527,
				-0.5743316411972046,
				0.08136067539453506
			],
			"scale":[
				0.49999988079071045,
				0.49999988079071045,
				0.49999985098838806
			],
			"translation":[
				0.026855317875742912,
				5.402914047241211,
				1.3924455642700195
			]
		},
		{
			"mesh":1,
			"name":"Cylinder.017",
			"rotation":[
				-0.3979267477989197,
				-0.42820414900779724,
				-0.5627086758613586,
				0.5845120549201965
			],
			"scale":[
				0.4999997019767761,
				0.4999997317790985,
				0.49999967217445374
			],
			"translation":[
				0.0015161472838371992,
				5.497154235839844,
				0.965991735458374
			]
		},
		{
			"mesh":1,
			"name":"Cylinder.018",
			"rotation":[
				-0.14538267254829407,
				-0.6016004085540771,
				-0.37158700823783875,
				0.6920000314712524
			],
			"scale":[
				0.49999964237213135,
				0.49999967217445374,
				0.49999967217445374
			],
			"translation":[
				0.025798095390200615,
				5.504130840301514,
				1.0174219608306885
			]
		},
		{
			"mesh":1,
			"name":"Cylinder.019",
			"rotation":[
				0.18793149292469025,
				0.7031794786453247,
				0.07442166656255722,
				0.6816756725311279
			],
			"scale":[
				0.5000000596046448,
				0.5000000596046448,
				0.5000000596046448
			],
			"translation":[
				-0.040746863931417465,
				5.524425029754639,
				1.0807979106903076
			]
		},
		{
			"mesh":1,
			"name":"Cylinder.020",
			"rotation":[
				-0.420695424079895,
				-0.45008429884910583,
				-0.5453661680221558,
				0.5683443546295166
			],
			"scale":[
				0.49999886751174927,
				0.49999895691871643,
				0.49999892711639404
			],
			"translation":[
				0.0015161401825025678,
				5.542945384979248,
				0.8082144260406494
			]
		},
		{
			"mesh":1,
			"name":"Cylinder.021",
			"rotation":[
				0.6194666028022766,
				0.45282477140426636,
				-0.5430929064750671,
				0.34097084403038025
			],
			"scale":[
				0.5000002980232239,
				0.5000002980232239,
				0.5000002384185791
			],
			"translation":[
				0.012714154087007046,
				5.671037197113037,
				0.7064956426620483
			]
		},
		{
			"mesh":1,
			"name":"Cylinder.022",
			"rotation":[
				-0.3207724392414093,
				0.17804718017578125,
				-0.6843239068984985,
				0.6301627159118652
			],
			"scale":[
				0.5000004768371582,
				0.5000004768371582,
				0.5000004172325134
			],
			"translation":[
				-0.029799319803714752,
				5.3559417724609375,
				-7.98270845413208
			]
		},
		{
			"mesh":1,
			"name":"Cylinder.023",
			"rotation":[
				0.5233097672462463,
				0.47842562198638916,
				-0.5206812024116516,
				0.47554901242256165
			],
			"scale":[
				0.4999990463256836,
				0.49999910593032837,
				0.4999990463256836
			],
			"translation":[
				0.003721291432157159,
				5.452886581420898,
				-7.9704976081848145
			]
		},
		{
			"mesh":1,
			"name":"Cylinder.024",
			"rotation":[
				0.6383861899375916,
				-0.13187076151371002,
				-0.6947014331817627,
				0.3040775656700134
			],
			"scale":[
				0.49999991059303284,
				0.5,
				0.4999999701976776
			],
			"translation":[
				0.03894411399960518,
				5.345959186553955,
				-7.907553672790527
			]
		},
		{
			"mesh":1,
			"name":"Cylinder.025",
			"rotation":[
				-0.5786078572273254,
				-0.058334916830062866,
				-0.7046964168548584,
				0.4064640998840332
			],
			"scale":[
				0.4999994933605194,
				0.4999995529651642,
				0.499999463558197
			],
			"translation":[
				-0.030508926138281822,
				5.110082626342773,
				-7.596255779266357
			]
		},
		{
			"mesh":1,
			"name":"Cylinder.026",
			"rotation":[
				-0.38291969895362854,
				-0.31412944197654724,
				-0.633500337600708,
				0.5944514274597168
			],
			"scale":[
				0.5000002384185791,
				0.5000003576278687,
				0.5000003576278687
			],
			"translation":[
				-0.006020457483828068,
				5.124938011169434,
				-7.670999526977539
			]
		},
		{
			"mesh":1,
			"name":"Cylinder.027",
			"rotation":[
				-0.48515522480010986,
				-0.20721454918384552,
				-0.6760637164115906,
				0.5144166350364685
			],
			"scale":[
				0.4999995529651642,
				0.4999995827674866,
				0.4999995231628418
			],
			"translation":[
				-0.017719963565468788,
				5.049740791320801,
				-7.516798496246338
			]
		},
		{
			"mesh":1,
			"name":"Cylinder.028",
			"rotation":[
				-0.5972145199775696,
				-0.0913739874958992,
				-0.7011781930923462,
				0.378595769405365
			],
			"scale":[
				0.499999463558197,
				0.4999995231628418,
				0.4999994933605194
			],
			"translation":[
				-0.030600670725107193,
				4.671977519989014,
				-6.75299072265625
			]
		},
		{
			"mesh":1,
			"name":"Cylinder.029",
			"rotation":[
				-0.6609644293785095,
				0.03449144586920738,
				-0.7062650918960571,
				0.25124895572662354
			],
			"scale":[
				0.4999997615814209,
				0.49999988079071045,
				0.4999997913837433
			],
			"translation":[
				-0.04154317080974579,
				4.577752113342285,
				-6.50915002822876
			]
		},
		{
			"mesh":1,
			"name":"Cylinder.030",
			"rotation":[
				-0.698805570602417,
				-0.1615908443927765,
				0.6883956789970398,
				0.1080305203795433
			],
			"scale":[
				0.4999999403953552,
				0.5,
				0.4999999701976776
			],
			"translation":[
				0.03850913792848587,
				4.511629581451416,
				-6.301898002624512
			]
		},
		{
			"mesh":1,
			"name":"Cylinder.031",
			"rotation":[
				0.6979090571403503,
				0.35549554228782654,
				-0.6112470626831055,
				0.11367965489625931
			],
			"scale":[
				0.49999940395355225,
				0.499999463558197,
				0.49999940395355225
			],
			"translation":[
				0.027562107890844345,
				4.451865196228027,
				-6.07916259765625
			]
		},
		{
			"mesh":1,
			"name":"Cylinder.032",
			"rotation":[
				0.7070625424385071,
				0.20421181619167328,
				-0.67697674036026,
				0.007917718961834908
			],
			"scale":[
				0.5000001788139343,
				0.5000002384185791,
				0.5000001788139343
			],
			"translation":[
				0.03891954943537712,
				4.241337776184082,
				-5.515205383300781
			]
		},
		{
			"mesh":1,
			"name":"Cylinder.033",
			"rotation":[
				-0.7065577507019043,
				-0.07739664614200592,
				0.7028584480285645,
				0.027857232838869095
			],
			"scale":[
				0.4999997913837433,
				0.49999988079071045,
				0.49999985098838806
			],
			"translation":[
				0.03918037563562393,
				4.117378234863281,
				-5.027951240539551
			]
		},
		{
			"mesh":1,
			"name":"Cylinder.034",
			"rotation":[
				-0.6521071791648865,
				-0.21139267086982727,
				-0.6747689843177795,
				0.27341580390930176
			],
			"scale":[
				0.5,
				0.5,
				0.4999999701976776
			],
			"translation":[
				-0.029683230444788933,
				4.058781147003174,
				-4.8498334884643555
			]
		},
		{
			"mesh":1,
			"name":"Cylinder.035",
			"rotation":[
				-0.19226980209350586,
				-0.6879029273986816,
				-0.1636752188205719,
				0.6804648637771606
			],
			"scale":[
				0.49999988079071045,
				0.49999988079071045,
				0.49999988079071045
			],
			"translation":[
				0.034714870154857635,
				4.057346820831299,
				-4.405645370483398
			]
		},
		{
			"mesh":1,
			"name":"Cylinder.036",
			"rotation":[
				-0.31508976221084595,
				-0.6529919505119324,
				-0.2712959349155426,
				0.6330233216285706
			],
			"scale":[
				0.4999999403953552,
				0.4999999403953552,
				0.4999999403953552
			],
			"translation":[
				0.023179352283477783,
				4.054288864135742,
				-4.262390613555908
			]
		},
		{
			"mesh":1,
			"name":"Cylinder.037",
			"rotation":[
				0.6531242728233337,
				0.20509101450443268,
				-0.6767109036445618,
				0.27097731828689575
			],
			"scale":[
				0.49999916553497314,
				0.4999992549419403,
				0.4999992549419403
			],
			"translation":[
				0.02819947525858879,
				4.133342266082764,
				-4.119942665100098
			]
		},
		{
			"mesh":1,
			"name":"Cylinder.038",
			"rotation":[
				0.6856597661972046,
				0.040696997195482254,
				-0.7059347033500671,
				0.17283138632774353
			],
			"scale":[
				0.5,
				0.4999999701976776,
				0.5
			],
			"translation":[
				0.0392332598567009,
				4.1713151931762695,
				-3.7381222248077393
			]
		},
		{
			"mesh":1,
			"name":"Cylinder.039",
			"rotation":[
				0.6955516934394836,
				-0.07511568814516068,
				-0.7031056880950928,
				0.12731020152568817
			],
			"scale":[
				0.49999988079071045,
				0.4999999701976776,
				0.4999999701976776
			],
			"translation":[
				0.03926337510347366,
				4.241843223571777,
				-3.4016590118408203
			]
		},
		{
			"mesh":1,
			"name":"Cylinder.040",
			"rotation":[
				-0.7034804821014404,
				-0.39643657207489014,
				-0.5855239033699036,
				0.07151965796947479
			],
			"scale":[
				0.499999463558197,
				0.4999995231628418,
				0.499999463558197
			],
			"translation":[
				-0.029652582481503487,
				4.5175557136535645,
				-2.6477677822113037
			]
		},
		{
			"mesh":1,
			"name":"Cylinder.041",
			"rotation":[
				0.38539034128189087,
				0.3166135549545288,
				-0.6322624683380127,
				0.5928527116775513
			],
			"scale":[
				0.49999964237213135,
				0.4999997019767761,
				0.49999964237213135
			],
			"translation":[
				0.003751710057258606,
				4.677132606506348,
				-2.538736581802368
			]
		},
		{
			"mesh":1,
			"name":"Cylinder.042",
			"rotation":[
				-0.46809321641921997,
				-0.7010607123374939,
				-0.09227050840854645,
				0.5299893617630005
			],
			"scale":[
				0.5000002384185791,
				0.5000002980232239,
				0.5000002384185791
			],
			"translation":[
				0.02317912131547928,
				4.8151936531066895,
				-2.153501033782959
			]
		},
		{
			"mesh":1,
			"name":"Cylinder.043",
			"rotation":[
				-0.5487039089202881,
				-0.656208336353302,
				-0.26342102885246277,
				0.44600892066955566
			],
			"scale":[
				0.4999992847442627,
				0.49999934434890747,
				0.49999934434890747
			],
			"translation":[
				0.010394087061285973,
				5.334498882293701,
				-1.347975730895996
			]
		},
		{
			"mesh":1,
			"name":"Cylinder.044",
			"rotation":[
				0.40522852540016174,
				0.33826327323913574,
				-0.6209492087364197,
				0.5794738531112671
			],
			"scale":[
				0.4999990165233612,
				0.49999910593032837,
				0.49999913573265076
			],
			"translation":[
				0.0037515514995902777,
				5.486390590667725,
				-1.2859269380569458
			]
		},
		{
			"mesh":1,
			"name":"Cylinder.045",
			"rotation":[
				0.5463852882385254,
				0.2923229932785034,
				-0.6438534259796143,
				0.4488464593887329
			],
			"scale":[
				0.5000006556510925,
				0.5000007152557373,
				0.5000006556510925
			],
			"translation":[
				0.015347286127507687,
				5.631221294403076,
				-0.8699939846992493
			]
		},
		{
			"mesh":1,
			"name":"Cylinder.046",
			"rotation":[
				-0.6874134540557861,
				-0.30663973093032837,
				-0.6371594667434692,
				0.16571858525276184
			],
			"scale":[
				0.5000001192092896,
				0.5000001788139343,
				0.5000001192092896
			],
			"translation":[
				-0.02965286187827587,
				5.584949493408203,
				-0.7420463562011719
			]
		},
		{
			"mesh":1,
			"name":"Cylinder.047",
			"rotation":[
				0.09941477328538895,
				0.6588756442070007,
				-0.2566770911216736,
				0.7000832557678223
			],
			"scale":[
				0.499999463558197,
				0.4999994933605194,
				0.4999994933605194
			],
			"translation":[
				-0.03616821765899658,
				5.6301398277282715,
				-0.7996199727058411
			]
		},
		{
			"mesh":1,
			"name":"Cylinder.048",
			"rotation":[
				-0.3297814130783081,
				-0.661078155040741,
				-0.25094953179359436,
				0.625495195388794
			],
			"scale":[
				0.4999997317790985,
				0.4999997615814209,
				0.4999997317790985
			],
			"translation":[
				0.02317885495722294,
				5.620750427246094,
				-0.49160003662109375
			]
		},
		{
			"mesh":1,
			"name":"Cylinder.049",
			"rotation":[
				-0.6753673553466797,
				-0.26657044887542725,
				-0.6549354195594788,
				0.20947276055812836
			],
			"scale":[
				0.4999994933605194,
				0.4999995529651642,
				0.4999994933605194
			],
			"translation":[
				-0.029652921482920647,
				5.6392998695373535,
				-0.35896214842796326
			]
		},
		{
			"mesh":1,
			"name":"Cylinder.050",
			"rotation":[
				0.2733520567417145,
				-0.16553963720798492,
				0.4860503673553467,
				0.8134066462516785
			],
			"scale":[
				0.49999818205833435,
				0.4999982714653015,
				0.49999821186065674
			],
			"translation":[
				-0.03407201170921326,
				5.432315826416016,
				-7.998503684997559
			]
		}
	],
	"materials":[
		{
			"doubleSided":true,
			"name":"Material",
			"pbrMetallicRoughness":{
				"baseColorFactor":[
					0.05744050443172455,
					0.05744050443172455,
					0.05744050443172455,
					1
				],
				"metallicFactor":0,
				"roughnessFactor":0.5
			}
		},
		{
			"doubleSided":true,
			"emissiveFactor":[
				1,
				1,
				1
			],
			"name":"Light",
			"pbrMetallicRoughness":{
				"baseColorFactor":[
					0.800000011920929,
					0.800000011920929,
					0.800000011920929,
					1
				],
				"metallicFactor":0,
				"roughnessFactor":0.5
			}
		}
	],
	"meshes":[
		{
			"name":"B\u00e9zierCurve",
			"primitives":[
				{
					"attributes":{
						"POSITION":0,
						"NORMAL":1,
						"TEXCOORD_0":2
					},
					"indices":3,
					"material":0
				}
			]
		},
		{
			"name":"Cylinder.002",
			"primitives":[
				{
					"attributes":{
						"POSITION":4,
						"NORMAL":5,
						"TEXCOORD_0":6
					},
					"indices":7,
					"material":0
				},
				{
					"attributes":{
						"POSITION":8,
						"NORMAL":9,
						"TEXCOORD_0":10
					},
					"indices":11,
					"material":1
				}
			]
		}
	],
	"accessors":[
		{
			"bufferView":0,
			"componentType":5126,
			"count":518,
			"max":[
				8.048335075378418,
				5.749129772186279,
				0.03932732343673706
			],
			"min":[
				-8.048335075378418,
				4.016651630401611,
				-0.041798703372478485
			],
			"type":"VEC3"
		},
		{
			"bufferView":1,
			"componentType":5126,
			"count":518,
			"type":"VEC3"
		},
		{
			"bufferView":2,
			"componentType":5126,
			"count":518,
			"type":"VEC2"
		},
		{
			"bufferView":3,
			"componentType":5123,
			"count":2616,
			"type":"SCALAR"
		},
		{
			"bufferView":4,
			"componentType":5126,
			"count":42,
			"max":[
				0.08000003546476364,
				0.1644286811351776,
				0.08000003546476364
			],
			"min":[
				-0.08000003546476364,
				0.0002795383334159851,
				-0.08000003546476364
			],
			"type":"VEC3"
		},
		{
			"bufferView":5,
			"componentType":5126,
			"count":42,
			"type":"VEC3"
		},
		{
			"bufferView":6,
			"componentType":5126,
			"count":42,
			"type":"VEC2"
		},
		{
			"bufferView":7,
			"componentType":5123,
			"count":120,
			"type":"SCALAR"
		},
		{
			"bufferView":8,
			"componentType":5126,
			"count":24,
			"max":[
				0.06264307349920273,
				0.5155304074287415,
				0.06264307349920273
			],
			"min":[
				-0.06264308094978333,
				0.1644286811351776,
				-0.06264307349920273
			],
			"type":"VEC3"
		},
		{
			"bufferView":9,
			"componentType":5126,
			"count":24,
			"type":"VEC3"
		},
		{
			"bufferView":10,
			"componentType":5126,
			"count":24,
			"type":"VEC2"
		},
		{
			"bufferView":11,
			"componentType":5123,
			"count":72,
			"type":"SCALAR"
		}
	],
	"bufferViews":[
		{
			"buffer":0,
			"byteLength":6216,
			"byteOffset":0,
			"target":34962
		},
		{
			"buffer":0,
			"byteLength":6216,
			"byteOffset":6216,
			"target":34962
		},
		{
			"buffer":0,
			"byteLength":4144,
			"byteOffset":12432,
			"target":34962
		},
		{
			"buffer":0,
			"byteLength":5232,
			"byteOffset":16576,
			"target":34963
		},
		{
			"buffer":0,
			"byteLength":504,
			"byteOffset":21808,
			"target":34962
		},
		{
			"buffer":0,
			"byteLength":504,
			"byteOffset":22312,
			"target":34962
		},
		{
			"buffer":0,
			"byteLength":336,
			"byteOffset":22816,
			"target":34962
		},
		{
			"buffer":0,
			"byteLength":240,
			"byteOffset":23152,
			"target":34963
		},
		{
			"buffer":0,
			"byteLength":288,
			"byteOffset":23392,
			"target":34962
		},
		{
			"buffer":0,
			"byteLength":288,
			"byteOffset":23680,
			"target":34962
		},
		{
			"buffer":0,
			"byteLength":192,
			"byteOffset":23968,
			"target":34962
		},
		{
			"buffer":0,
			"byteLength":144,
			"byteOffset":24160,
			"target":34963
		}
	],
	"buffers":[
		{
			"byteLength":24304,
			"uri":"ChristmasLights.bin"
		}
	]
}
