{
	"asset":{
		"generator":"Khronos glTF Blender I/O v4.5.47",
		"version":"2.0"
	},
	"scene":0,
	"scenes":[
		{
			"name":"Scene",
			"nodes":[
				0
			]
		}
	],
	"nodes":[
		{
			"mesh":0,
			"name":"Inflatable_Mattress_Inflatable_Mattress_0"
		}
	],
	"materials":[
		{
			"doubleSided":true,
			"name":"Inflatable_Mattress",
			"normalTexture":{
				"index":0
			},
			"occlusionTexture":{
				"index":1
			},
			"pbrMetallicRoughness":{
				"baseColorTexture":{
					"index":2
				},
				"metallicRoughnessTexture":{
					"index":1
				}
			}
		}
	],
	"meshes":[
		{
			"name":"Inflatable_Mattress_Inflatable_Mattress_0",
			"primitives":[
				{
					"attributes":{
						"POSITION":0,
						"NORMAL":1,
						"TEXCOORD_0":2
					},
					"indices":3,
					"material":0
				}
			]
		}
	],
	"textures":[
		{
			"sampler":0,
			"source":0
		},
		{
			"sampler":0,
			"source":1
		},
		{
			"sampler":0,
			"source":2
		}
	],
	"images":[
		{
			"mimeType":"image/png",
			"name":"Inflatable_Mattress_normal",
			"uri":"Inflatable_Mattress_normal.png"
		},
		{
			"mimeType":"image/png",
			"name":"Inflatable_Mattress_metallicRoughness",
			"uri":"Inflatable_Mattress_metallicRoughness.png"
		},
		{
			"mimeType":"image/png",
			"name":"Inflatable_Mattress_baseColor",
			"uri":"Inflatable_Mattress_baseColor.png"
		}
	],
	"accessors":[
		{
			"bufferView":0,
			"componentType":5126,
			"count":1075,
			"max":[
				0.6859108209609985,
				0.21820476651191711,
				1.4669618606567383
			],
			"min":[
				-0.6777415871620178,
				-0.011013590730726719,
				-1.4578124284744263
			],
			"type":"VEC3"
		},
		{
			"bufferView":1,
			"componentType":5126,
			"count":1075,
			"type":"VEC3"
		},
		{
			"bufferView":2,
			"componentType":5126,
			"count":1075,
			"type":"VEC2"
		},
		{
			"bufferView":3,
			"componentType":5123,
			"count":5676,
			"type":"SCALAR"
		}
	],
	"bufferViews":[
		{
			"buffer":0,
			"byteLength":12900,
			"byteOffset":0,
			"target":34962
		},
		{
			"buffer":0,
			"byteLength":12900,
			"byteOffset":12900,
			"target":34962
		},
		{
			"buffer":0,
			"byteLength":8600,
			"byteOffset":25800,
			"target":34962
		},
		{
			"buffer":0,
			"byteLength":11352,
			"byteOffset":34400,
			"target":34963
		}
	],
	"samplers":[
		{
			"magFilter":9729,
			"minFilter":9987
		}
	],
	"buffers":[
		{
			"byteLength":45752,
			"uri":"mattress.bin"
		}
	]
}
