{
	"asset":{
		"generator":"Khronos glTF Blender I/O v4.5.47",
		"version":"2.0"
	},
	"scene":0,
	"scenes":[
		{
			"name":"Scene",
			"nodes":[
				1
			]
		}
	],
	"nodes":[
		{
			"mesh":0,
			"name":"Mag_Mid",
			"translation":[
				0,
				-0.8301063776016235,
				0.1408117115497589
			]
		},
		{
			"children":[
				0
			],
			"mesh":1,
			"name":"M4A1_Mid",
			"translation":[
				0,
				0.2504279613494873,
				0.10090440511703491
			]
		}
	],
	"materials":[
		{
			"doubleSided":true,
			"name":"Gray",
			"pbrMetallicRoughness":{
				"baseColorFactor":[
					0.031931232661008835,
					0.031931232661008835,
					0.031931232661008835,
					1
				],
				"metallicFactor":0,
				"roughnessFactor":0.5
			}
		}
	],
	"meshes":[
		{
			"name":"Cube.011",
			"primitives":[
				{
					"attributes":{
						"POSITION":0,
						"NORMAL":1,
						"TEXCOORD_0":2
					},
					"indices":3,
					"material":0
				}
			]
		},
		{
			"name":"Cube.001",
			"primitives":[
				{
					"attributes":{
						"POSITION":4,
						"NORMAL":5,
						"TEXCOORD_0":6
					},
					"indices":7,
					"material":0
				}
			]
		}
	],
	"accessors":[
		{
			"bufferView":0,
			"componentType":5126,
			"count":215,
			"max":[
				0.11759071797132492,
				0.9952483773231506,
				0.4723866283893585
			],
			"min":[
				-0.11759071052074432,
				-0.9952483177185059,
				-0.4723866283893585
			],
			"type":"VEC3"
		},
		{
			"bufferView":1,
			"componentType":5126,
			"count":215,
			"type":"VEC3"
		},
		{
			"bufferView":2,
			"componentType":5126,
			"count":215,
			"type":"VEC2"
		},
		{
			"bufferView":3,
			"componentType":5123,
			"count":840,
			"type":"SCALAR"
		},
		{
			"bufferView":4,
			"componentType":5126,
			"count":8811,
			"max":[
				0.34809982776641846,
				1.1852564811706543,
				4.927329063415527
			],
			"min":[
				-0.34809982776641846,
				-1.1852564811706543,
				-4.927329063415527
			],
			"type":"VEC3"
		},
		{
			"bufferView":5,
			"componentType":5126,
			"count":8811,
			"type":"VEC3"
		},
		{
			"bufferView":6,
			"componentType":5126,
			"count":8811,
			"type":"VEC2"
		},
		{
			"bufferView":7,
			"componentType":5123,
			"count":43083,
			"type":"SCALAR"
		}
	],
	"bufferViews":[
		{
			"buffer":0,
			"byteLength":2580,
			"byteOffset":0,
			"target":34962
		},
		{
			"buffer":0,
			"byteLength":2580,
			"byteOffset":2580,
			"target":34962
		},
		{
			"buffer":0,
			"byteLength":1720,
			"byteOffset":5160,
			"target":34962
		},
		{
			"buffer":0,
			"byteLength":1680,
			"byteOffset":6880,
			"target":34963
		},
		{
			"buffer":0,
			"byteLength":105732,
			"byteOffset":8560,
			"target":34962
		},
		{
			"buffer":0,
			"byteLength":105732,
			"byteOffset":114292,
			"target":34962
		},
		{
			"buffer":0,
			"byteLength":70488,
			"byteOffset":220024,
			"target":34962
		},
		{
			"buffer":0,
			"byteLength":86166,
			"byteOffset":290512,
			"target":34963
		}
	],
	"buffers":[
		{
			"byteLength":376680,
			"uri":"MtfRifle.bin"
		}
	]
}
